<svg width="480" height="633" viewBox="0 0 480 633" fill="none" xmlns="http://www.w3.org/2000/svg">
<path fill-rule="evenodd" clip-rule="evenodd" d="M206.482 18.0188C190.167 14.8465 157.794 18.0186 147.568 42.9442C143.329 53.2764 142.014 66.7182 141.837 79.7032L141.223 80.1047V83.5549C141.104 83.5532 140.984 83.5543 140.863 83.5584C137.064 84.079 136.656 87.2215 136.321 89.7988L136.321 89.7995L136.321 89.8003C136.269 90.1973 136.219 90.5808 136.159 90.9393C135.701 93.6626 138.593 113.871 141.451 116.933C141.961 117.48 142.498 117.781 143.036 117.886L143.036 118.029L143.036 118.172C143.036 118.748 143.057 119.338 143.098 119.94C134.271 124.221 116.11 133.403 107.687 139.018C96.811 146.269 89.1069 157.599 89.1069 161.224C89.1069 164.125 93.9408 181.164 96.3578 189.321C82.9134 196.27 54.665 211.618 49.2268 217.419C42.4291 224.67 17.0509 263.19 13.4255 289.475C10.054 313.918 10.2097 336.793 10.2481 342.43C10.251 342.854 10.2532 343.181 10.2532 343.403C10.2532 345.284 8.97849 348.918 7.75182 352.415C6.90975 354.815 6.09031 357.151 5.72137 358.812C4.99628 362.074 5.41925 371.652 5.72137 376.032C3.3044 383.737 -1.16699 400.595 0.283187 406.396C1.13935 409.82 3.41082 414.357 5.56969 418.669C7.98172 423.486 10.2532 428.023 10.2532 430.414C10.2532 434.946 32.9123 474.826 43.3355 481.171C49.044 484.645 56.5196 495.46 63.3056 505.278L63.3058 505.278C68.9103 513.386 74.0444 520.814 77.3241 522.863C78.4838 523.588 79.7015 524.081 80.9734 524.398C81.0481 525.425 81.1866 526.292 81.4033 526.942C81.5617 527.417 81.7788 528.062 82.0424 528.844C84.796 537.017 92.614 560.222 91.3733 562.29C90.0137 564.556 87.7471 569.541 89.5602 574.073C91.3656 578.586 102.157 597.027 113.434 601.211C111.282 617.471 110.059 628.266 110.407 630.268C111.543 636.799 126.913 630.341 141.355 624.273L141.356 624.273L141.359 624.271C149.964 620.656 158.238 617.18 162.976 616.672C166.868 616.255 174.939 615.881 184.808 615.719C191.568 616.679 196.328 617.108 197.417 616.672C198.068 616.412 198.69 616.068 199.278 615.647C219.13 615.771 241.279 616.839 251.799 619.844C270.833 625.282 297.118 621.657 310.713 616.672C314.729 615.2 317.756 613.806 320.332 612.621L320.334 612.62L320.335 612.619L320.336 612.619C326.479 609.791 330.056 608.144 338.357 609.421C350.14 611.234 356.938 607.155 355.578 603.077C354.455 599.707 352.713 573.137 352.653 556.08C359.758 551.014 368.65 539.254 367.361 532.38C367.173 531.375 366.984 530.439 366.806 529.557C365.703 524.08 365.019 520.687 367.361 515.613C369.174 511.685 368.57 508.563 367.965 505.441C367.663 503.88 367.361 502.319 367.361 500.658C367.361 498.705 368.195 496.962 369.046 495.181C370.369 492.416 371.733 489.562 370.08 485.703C368.779 482.666 368.827 479.214 368.883 475.198C368.945 470.823 369.016 465.778 367.361 459.871C367.038 458.717 366.583 457.13 366.027 455.19L366.025 455.184L366.024 455.179L366.006 455.118L366.005 455.115C361.084 437.953 348.327 393.462 348.327 375.579C348.773 376.075 349.209 376.577 349.646 377.08C353.204 381.175 356.869 385.394 367.361 387.815C379.143 390.534 405.428 390.988 413.586 385.549C421.743 380.111 446.668 347.482 448.933 332.527C448.974 332.255 449.018 331.967 449.065 331.663C450.418 322.781 453.754 300.898 448.933 290.381C444.945 281.68 436.093 270.743 432.166 266.363C432.261 268.26 432.251 270.871 432.025 273.704C432.166 271.31 432.166 269.078 432.166 267.269C428.541 262.284 423.556 247.782 423.556 243.25C423.556 238.718 426.728 214.7 427.181 211.981C427.735 208.656 430.153 203.128 431.948 199.024C433.089 196.415 433.979 194.382 433.979 193.853C433.979 192.494 431.713 189.775 428.994 189.775C424.915 189.775 419.024 196.572 416.758 200.198C415.859 201.636 414.309 208.51 412.994 214.339L412.994 214.34L412.994 214.343C412.059 218.488 411.243 222.104 410.867 222.857C410.177 224.236 403.979 213.811 400.255 207.547L400.254 207.546C399.084 205.578 398.158 204.02 397.724 203.37C395.912 200.651 380.503 178.898 377.784 178.898C375.065 178.898 372.233 182.071 373.706 187.962C374.366 190.603 377.014 194.827 379.352 198.557C381.291 201.65 383.017 204.404 383.223 205.636C383.475 207.148 384.384 210.08 385.325 213.116C386.64 217.357 388.018 221.8 387.754 222.857C387.603 222.814 387.441 222.767 387.27 222.718L386.676 222.548C383.087 221.516 376.561 219.639 373.706 219.232C370.533 218.778 365.257 218.908 364.189 221.044C363.283 222.857 361.47 227.842 363.283 232.374C363.212 232.444 363.142 232.514 363.073 232.582L363.033 232.623C361.79 233.86 360.796 234.849 360.11 236.906C358.815 240.79 359.37 242.594 359.793 243.968C359.962 244.517 360.11 244.998 360.11 245.516C359.792 245.675 359.261 245.713 358.643 245.758C357.498 245.841 356.056 245.945 355.125 246.876C354.895 247.106 354.665 247.414 354.443 247.777C348.853 242.349 337.184 226.225 334.732 219.685C334.196 218.257 333.696 216.671 333.172 215.01C331.035 208.235 328.504 200.212 321.59 196.573C319.055 195.239 316.796 193.754 314.58 192.299C309.267 188.809 304.206 185.485 296.211 184.79C291.629 184.391 287.484 183.73 283.624 183.114C278.703 182.329 274.244 181.617 269.927 181.617C272.193 174.367 270.38 166.662 264.942 158.505C261.639 153.551 254.211 149.59 247.453 145.986L247.451 145.985L247.449 145.984C245.87 145.142 244.329 144.32 242.885 143.51C245.754 135.322 250.732 119.707 248.705 120.405C249.081 118.821 249.362 117.45 249.534 116.359C250.541 109.981 250.056 95.8944 249.737 86.6245V86.6242V86.6238V86.6236V86.6233L249.734 86.5361L249.732 86.4852C249.717 86.024 249.701 85.5751 249.686 85.1399C249.91 85.1053 250.128 85.0798 250.336 85.0555C250.977 84.9806 251.519 84.9172 251.799 84.6364C252.706 83.7301 252.253 75.1197 251.8 74.2133C251.658 73.9291 250.686 73.6894 249.245 73.4849C248.533 64.8645 246.41 50.7574 241.83 42.9438C234.126 29.8015 222.796 21.1911 206.482 18.0188ZM391.232 288.857C391.259 289.151 391.286 289.437 391.334 289.708C390.353 288.658 390.235 290.552 390.076 293.127C389.858 296.656 389.56 301.464 386.848 301.711C384.583 301.917 383.722 299.036 382.649 295.449C381.359 291.14 379.765 285.809 375.065 283.583C366.454 279.505 365.095 270.441 365.095 266.363C365.095 265.781 365.003 265.079 364.832 264.294C366.55 265.289 368.387 266.429 370.071 267.474L370.071 267.474C372.136 268.755 373.969 269.893 375.065 270.441C378.173 271.995 380.272 274.809 382.492 277.788C384.482 280.455 386.569 283.255 389.567 285.396C391.004 286.422 391.124 287.704 391.232 288.857ZM146.698 167.051C147.306 165.971 147.804 164.136 148.209 161.86C147.907 162.908 147.591 163.99 147.267 165.101L146.997 166.025C146.898 166.365 146.798 166.707 146.698 167.051Z" fill="#5CB0A8"/>
<path d="M184.06 145.406C186.518 141.192 187.132 124.335 187.132 116.434L266.146 141.016C265.121 146.43 264.126 158.75 268.34 164.72C272.554 170.69 281.509 172.182 285.46 172.182C284.143 180.523 278.876 199.222 268.34 207.299C255.172 217.396 209.519 215.64 194.595 210.811C179.67 205.983 148.504 166.915 152.893 164.72C157.283 162.525 180.987 150.673 184.06 145.406Z" fill="#E3AD98"/>
<path d="M237.613 185.351C260 185.351 267.463 169.549 269.218 161.208C272.73 161.208 311.359 207.738 321.894 224.419C332.429 241.1 384.666 499.649 383.788 513.257C382.91 526.864 385.105 563.737 386.421 567.688C387.738 571.639 381.154 575.589 369.741 573.833C358.328 572.078 356.133 576.028 342.964 580.857C329.795 585.685 304.335 589.197 285.899 583.93C267.463 578.662 212.153 579.54 199.862 580.857C187.571 582.174 150.698 604.122 148.943 594.026C147.187 583.93 186.693 342.939 179.67 325.819C174.051 312.124 171.476 205.69 170.891 154.185C173.232 157.697 181.132 165.05 190.644 171.743C202.496 180.084 218.294 185.351 237.613 185.351Z" fill="white"/>
<path d="M184.938 25.1302C194.843 0.986635 226.2 -2.08591 242.003 0.98683C257.806 4.05957 268.78 12.3999 276.242 25.1298C281.928 34.829 283.705 54.5403 283.705 60.2468C283.705 65.9533 285.022 87.9015 283.705 96.2418C282.388 104.582 274.486 129.922 266.585 139.26C260.271 146.723 249.026 155.502 238.052 155.502C227.078 155.502 214.451 152.796 205.13 144.967C194.156 135.748 180.548 112.483 180.548 97.9976C180.548 83.5119 175.934 47.0779 184.938 25.1302Z" fill="#F2B9A3"/>
<path d="M178.792 61.1247L190.205 53.6624V63.9578L178.792 65.0754V61.1247Z" fill="#31383E"/>
<path fill-rule="evenodd" clip-rule="evenodd" d="M262.634 83.5118C249.465 83.5118 241.564 73.4157 241.564 63.7585C241.564 54.1013 245.953 52.3455 262.634 52.3455C267.252 52.3455 270.799 52.9095 273.502 53.9223C278.831 54.2142 285.514 54.6476 285.899 55.4182C286.338 56.2961 286.777 64.6364 285.899 65.5143C285.627 65.7863 285.102 65.8476 284.481 65.9202C283.527 66.0317 282.346 66.1697 281.507 67.1393C281.366 75.2829 275.639 83.5118 262.634 83.5118Z" fill="#31383E"/>
<path fill-rule="evenodd" clip-rule="evenodd" d="M212.366 81.8894C225.347 82.1303 233.321 72.3227 233.497 62.8031C233.674 53.2836 229.379 51.4725 212.936 51.1673C208.384 51.0828 204.877 51.5739 202.194 52.5228C196.936 52.7131 190.341 53.018 189.947 53.7706C189.498 54.628 188.913 62.8413 189.763 63.7228C190.026 63.9959 190.542 64.0659 191.153 64.1488C192.091 64.2762 193.252 64.4338 194.062 65.4044C194.051 73.4346 199.546 81.6515 212.366 81.8894Z" fill="#31383E"/>
<path d="M173.887 71.6193C174.324 69.0174 174.196 65.052 178.443 64.47C183.238 64.3065 186.598 69.0001 186.718 72.493C186.837 75.9859 185.188 90.2023 185.242 91.7765C185.361 95.2694 181.781 99.7627 179.012 96.7973C176.244 93.8319 173.443 74.2572 173.887 71.6193Z" fill="#EDB6A0"/>
<path d="M230.151 57.613C233.224 55.8572 241.564 55.8572 244.637 57.613L243.759 64.6365C242.149 63.7586 239.808 63.3196 237.174 63.3196C233.224 63.3196 230.151 64.6365 230.151 64.6365V57.613Z" fill="#31383E"/>
<path d="M146.308 118.19C154.737 112.571 173.231 103.265 181.425 99.3145C183.328 107.069 187.308 123.457 188.01 126.969C188.888 131.359 184.498 142.772 181.425 155.063C178.352 167.354 190.644 191.497 196.789 209.933C202.935 228.37 233.662 287.191 236.296 299.482C238.93 311.773 239.369 331.087 242.002 353.474C244.109 371.384 241.124 413.612 239.369 432.487C237.613 431.024 233.574 428.098 231.467 428.098C228.833 428.098 214.348 427.22 210.836 428.098C207.324 428.976 185.815 432.048 175.719 437.755C165.623 443.461 168.257 449.607 165.623 460.581C162.989 471.555 173.524 486.919 172.646 489.991C171.768 493.064 154.21 489.991 143.675 489.991C133.14 489.991 123.921 494.381 116.898 489.991C109.875 485.602 94.0719 455.752 83.9757 449.607C73.8796 443.461 51.9314 404.833 51.9314 400.443C51.9314 396.053 44.0301 384.201 42.2742 377.178C40.8696 371.559 45.2007 355.23 47.5418 347.767C47.2491 343.524 46.8394 334.247 47.5418 331.087C48.4197 327.136 51.9314 319.235 51.9314 316.162C51.9314 313.089 51.4924 289.385 55.0042 263.926C58.5159 238.466 83.0978 201.154 89.6822 194.13C94.9498 188.512 122.312 173.646 135.334 166.915C132.993 159.013 128.311 142.508 128.311 139.699C128.311 136.187 135.773 125.213 146.308 118.19Z" fill="#438488"/>
<path d="M120.849 493.942C119.444 489.728 121.434 476.091 122.605 469.799C125.678 468.482 164.306 464.532 178.353 464.532C192.4 464.532 240.686 500.527 242.441 504.038C244.197 507.55 240.686 558.47 240.686 565.932C240.686 573.394 237.613 579.101 233.223 580.857C228.834 582.613 162.989 569.883 152.015 565.932C141.041 561.981 130.506 543.984 128.75 539.594C126.994 535.205 129.189 530.376 130.506 528.181C131.823 525.986 122.605 499.21 120.849 493.942Z" fill="#438488"/>
<path d="M263.951 152.429C262.634 144.967 273.169 126.53 275.803 121.702C283.265 126.091 294.415 130.744 298.629 137.065C303.897 144.967 305.652 152.429 303.458 159.452C310.92 159.452 318.821 161.647 328.917 162.525C339.892 163.479 345.16 169.549 353.499 173.938C361.839 178.328 363.596 189.302 366.229 196.325C368.863 203.349 382.471 221.785 386.861 224.858C391.25 227.931 395.64 237.588 395.64 241.539C395.64 245.489 396.956 254.268 405.297 258.219C413.638 262.17 411.881 276.217 416.71 275.778C421.539 275.339 418.466 259.975 421.539 264.804C424.611 269.632 448.315 270.51 454.9 264.804C460.167 260.238 460.899 247.391 460.606 241.539C464.41 245.782 472.985 256.375 476.847 264.804C481.676 275.339 478.056 297.648 476.847 305.627C474.653 320.113 450.51 351.718 442.609 356.986C434.708 362.253 409.247 361.814 397.835 359.181C386.422 356.547 383.349 351.718 379.398 347.329C379.398 366.643 394.761 418.002 397.835 428.976C400.908 439.95 397.835 447.851 400.468 453.997C403.101 460.142 397.835 463.654 397.835 468.482C397.835 473.311 400.468 477.262 397.835 482.968C395.201 488.675 396.518 492.186 397.835 499.21C399.152 506.233 389.494 518.524 382.471 522.914C375.448 527.303 357.011 545.301 357.011 545.301C357.011 545.301 353.06 537.839 357.011 522.914C360.961 507.989 349.11 489.553 342.964 477.262C336.819 464.971 343.403 451.363 342.964 439.511C342.525 427.659 336.38 416.685 332.868 406.589C329.356 396.492 335.941 379.812 324.528 351.718C313.115 323.625 292.483 260.853 291.605 245.489C290.727 230.125 274.011 194.84 272.73 184.912C270.974 171.304 265.268 159.891 263.951 152.429Z" fill="#438488"/>
<path d="M260.842 431.265C265.492 443.196 271.86 461.491 275.079 470.853C276.196 474.1 274.35 477.607 271.047 478.542L204.252 497.454L175.281 457.508L253.268 427.955C256.29 426.81 259.669 428.254 260.842 431.265Z" fill="#292222"/>
<path d="M233.224 428.537C236.384 429.239 238.93 431.756 239.808 432.926C231.468 435.56 215.665 444.339 213.909 447.851C211.715 452.241 214.348 463.654 216.543 466.287C218.738 468.921 242.881 481.651 248.149 482.529C252.363 483.232 261.756 481.651 267.902 479.895C267.609 483.114 266.673 489.289 265.268 491.747C263.863 494.206 257.074 497.746 253.855 498.771C253.416 500.234 252.889 502.897 250.782 505.355C248.675 507.813 242.442 508.867 238.93 508.428C237.028 509.891 233.751 512.027 230.59 512.379C226.639 512.818 221.372 511.501 219.616 511.501C217.86 511.501 209.081 513.696 206.447 512.379C202.496 510.403 175.72 491.747 173.086 489.552C170.452 487.358 166.062 471.116 165.185 466.287C164.307 461.459 166.501 460.142 166.501 452.68C166.501 445.217 168.696 442.144 173.964 437.316C179.474 432.265 207.764 427.659 212.593 427.659C217.421 427.659 229.273 427.659 233.224 428.537Z" fill="#F2B9A3"/>
<path d="M452.266 219.151C452.266 223.541 457.095 237.588 460.606 242.416C460.606 249.44 460.606 263.048 451.827 266.998C443.048 270.949 426.806 268.754 421.978 265.681C420.126 264.503 421.92 261.815 419.344 259.975C413.198 255.585 411.004 248.342 405.297 245.489C402.663 244.172 395.64 239.344 391.689 237.588C389.249 236.503 384.337 231.881 383.788 229.686C383.349 227.931 384.666 223.98 385.983 222.663C387.371 221.275 389.933 221.785 390.811 221.346C390.811 219.59 389.055 218.273 390.811 213.006C391.519 210.882 392.567 209.933 393.884 208.616C392.128 204.227 393.884 199.398 394.762 197.642C395.797 195.573 400.907 195.447 403.98 195.886C407.053 196.325 414.515 198.52 417.588 199.398C418.027 197.642 413.784 186.229 413.198 182.717C412.759 180.084 405.15 170.277 403.98 165.598C402.554 159.891 405.297 156.819 407.931 156.819C410.565 156.819 425.489 177.889 427.245 180.523C429.001 183.156 439.097 201.154 439.975 199.398C440.853 197.642 444.192 179.833 445.682 177.45C447.877 173.938 453.583 167.354 457.534 167.354C460.167 167.354 462.362 169.987 462.362 171.304C462.362 172.621 456.656 183.595 455.778 188.863C455.339 191.497 452.266 214.762 452.266 219.151Z" fill="#F2B9A3"/>
<path fill-rule="evenodd" clip-rule="evenodd" d="M262.634 108.094C263.073 104.582 261.93 101.909 260.439 100.631C257.366 97.9975 248.587 92.291 245.076 92.291C243.956 92.291 242.65 92.9494 241.344 93.6079C240.038 94.2663 238.732 94.9248 237.613 94.9248C235.514 94.9248 233.786 94.1811 232.167 93.4841C230.739 92.8694 229.396 92.291 227.956 92.291C224.883 92.291 210.836 99.7533 209.519 101.509C209.106 102.061 208.779 102.916 208.429 103.83C207.667 105.823 206.798 108.094 204.691 108.094C201.618 108.094 197.718 107.861 193.717 105.46C189.327 102.826 186.254 99.3144 184.06 92.2909C183.395 90.164 183.316 87.0152 183.248 84.3074C183.161 80.8677 183.093 78.1397 181.865 79.1221C180.171 80.4774 180.569 86.5402 180.839 90.649C180.918 91.8633 180.987 92.907 180.987 93.608C180.987 95.6431 180.848 98.9973 180.727 101.934C180.632 104.221 180.548 106.255 180.548 107.216C180.548 112.044 192.626 137.792 197.229 143.65C202.057 149.795 214.348 159.891 224.005 161.208C231.018 162.165 249.466 162.964 256.927 157.697C264.389 152.429 272.797 134.045 275.803 126.53C277.559 122.141 285.46 98.8755 282.826 100.192C281.509 103.265 279.754 107.216 274.486 108.972C269.218 110.727 262.415 109.85 262.634 108.094ZM257.366 111.166C257.366 115.117 252.099 122.799 249.465 123.457C245.075 124.555 226.2 125.213 223.566 124.335C220.932 123.457 213.909 119.507 212.153 116.873C210.748 114.766 211.568 110.289 212.153 108.533C216.982 105.021 226.2 101.509 227.956 101.509C229.053 101.509 230.59 101.838 232.126 102.168C233.662 102.497 235.199 102.826 236.296 102.826C237.455 102.826 238.858 102.459 240.183 102.113C241.368 101.803 242.491 101.509 243.32 101.509C245.075 101.509 257.366 105.899 257.366 111.166Z" fill="#534D44"/>
<path d="M248.587 119.946C250.782 118.629 252.977 114.678 254.294 111.167C254.294 109.411 247.271 105.46 244.637 105.021C243.412 104.817 238.491 105.899 236.296 105.899C234.102 105.899 227.517 104.582 225.761 105.46C224.883 105.899 216.104 108.094 216.104 109.85C216.104 112.483 217.605 115.8 220.055 117.433C222.689 119.189 227.078 121.823 235.419 121.823C240.247 121.823 247.397 120.66 248.587 119.946Z" fill="#DDA599"/>
<path d="M244.198 115.117C246.393 114.678 249.465 113.8 251.221 112.922C251.368 112.483 251.66 110.289 251.66 110.289C251.66 110.289 250.137 109.088 249.027 108.533C247.271 107.655 244.198 107.216 243.759 107.216C243.32 107.216 238.93 107.655 236.296 108.094C232.346 107.655 227.078 107.216 224.883 107.655C223.162 107.999 219.177 109.411 218.738 109.85C219.177 111.166 218.738 111.605 219.616 112.483C220.494 113.361 227.517 115.117 231.029 115.556C234.541 115.995 242.003 115.556 244.198 115.117Z" fill="white"/>
</svg>
